<?xml version="1.0" encoding="UTF-8"?>
<svg id="Layer_1" data-name="Layer 1" xmlns="http://www.w3.org/2000/svg" viewBox="0 0 343.96 264.83">
  <defs>
    <style>
      .cls-1 {
        stroke-linecap: round;
        stroke-linejoin: round;
        stroke-width: 4px;
      }

      .cls-1, .cls-2, .cls-3, .cls-4, .cls-5, .cls-6, .cls-7 {
        fill: #fff;
      }

      .cls-1, .cls-2, .cls-4, .cls-5, .cls-8, .cls-6, .cls-7 {
        stroke: #fff;
      }

      .cls-2, .cls-4, .cls-5, .cls-8, .cls-6, .cls-7 {
        stroke-miterlimit: 10;
      }

      .cls-4, .cls-8 {
        stroke-width: 3px;
      }

      .cls-5 {
        stroke-width: 6px;
      }

      .cls-8 {
        fill: none;
      }

      .cls-6 {
        stroke-width: 2px;
      }

      .cls-7 {
        stroke-width: 7px;
      }
    </style>
  </defs>
  <ellipse class="cls-8" cx="154.79" cy="145.8" rx="174.51" ry="81.36" transform="translate(-54.49 108.12) rotate(-33.08)"/>
  <g>
    <path class="cls-3" d="M154.87,235.82s.02.04.02.04l.08-.08s-.07,0-.1.04ZM155.9,234.84s.05-.05.08-.07c-.07-.02-.09,0-.08.07ZM175.14,171.46c-.12-.3-.6-.81-.91-.91-.2-.06-.39-.02-.57.09-.04.02-.21.13-.21.19,0,.01.01.02.02.03.05.02.21.03.28.04.1.03.36.14.32.27-.02.07-.27.26-.28.32,0,.02.01.04.01.06l-.87.88c-.31-.28-.62-.57-.9-.87-.04-.04-.12-.08-.13-.15-.01-.1.13-.28.19-.35.15-.17.35-.33.55-.45v-.03c0-.08-.16-.05-.22-.04-.21.04-.49.19-.66.32-.04.03-.2.18-.22.18-.05.01-.07-.06-.12-.04-.04.06-.24.23-.24.29,0,.03.02.05.02.07,0,.05-.13.19-.16.24-.11.17-.35.62-.32.83,0,.05.05.07.09.04.18-.21.35-.47.57-.65.11-.09.17-.11.3-.01l.91.94-1.11,1.13c-.06.1.08.23.15.28s.11.05.18,0l1.1-1.1.96.98c.13.1.18.21.34.08.23-.19.15-.26-.02-.43-.32-.32-.66-.61-.96-.95l.88-.88s.06.03.09.02c.05-.03.18-.2.24-.24.04-.03.06-.04.11-.03.13.01.29.25.35.36.05.09.11.33.21.19.11-.17.1-.52.03-.7ZM171.67,171.71c-.13-.06-.19-.04-.3.04-.23.17-.4.44-.59.65.04-.25.14-.49.27-.7.04-.05.22-.29.22-.33,0-.03-.03-.04-.01-.09,0-.02.17-.2.18-.2.03,0,.07.05.12.03.27-.25.6-.46.96-.51l-.37.3c-.1.1-.31.34-.32.48,0,.05.02.08.04.13l-.2.2ZM172.57,172.63s-.02-.03-.03-.04h0c-.29-.28-.55-.55-.81-.83l.19-.2.03.02c.28.3.62.57.9.88v.05c-.05.06-.12.13-.18.18h-.04s-.04-.04-.06-.06ZM173.29,172.9s.01.02.01.02c0,.01.01.02.03.02.2.18.38.38.57.57l.02.02h.01s.01.02.02.03c.06.06.33.28.34.35,0,.04-.14.18-.18.19-.06.01-.08-.01-.13-.04-.21-.18-.44-.46-.64-.66-.12-.13-.26-.25-.37-.39l.21-.21s.1.08.11.1ZM175.06,172.12l-.14-.25c-.11-.16-.31-.44-.53-.28-.05.04-.17.19-.21.21-.03.02-.05,0-.08-.01-.03-.03-.19-.2-.22-.24-.01-.01-.02-.03-.02-.04.12-.19.45-.32.16-.55-.12-.1-.31-.15-.47-.15v-.02c.17-.11.33-.22.55-.2.33.02.86.6.98.89.08.21.07.44-.02.64ZM166.18,238.28c-.58-.8-3.37-1.11-4.54-1.28-.08-.01-.14-.02-.2-.03-.74-.66-1.47-1.34-2.24-1.97-.48-.39-1.13-.51-1.66-.13l-2.32,2.11c-1.26.21-3.77.32-4.76,1.18-.45.39-.23.68,0,1.09.43.74.97,1.6,1.49,2.34.07.11.15.22.22.32,1.13,1.59,3.64,1.65,5.43,1.71,1.65.06,5.4.01,6.53-1.38.56-.69,1.18-1.75,1.66-2.52.27-.44.75-.94.39-1.44ZM142.56,245.35c.05.09.11.18.18.25h.01c-.07-.08-.14-.16-.19-.25Z"/>
    <path class="cls-3" d="M161.4,159.68c-.24,1.04-1.46,3-2.37,3.56-1.48.92-5.28.66-6.81,1.48-.69.37-1.69,1.64-2.08,2.32-.64,1.13-1.22,3.79-2.07,4.77-.89,1.04-4.65,2.91-4.65,2.91-4-2.35-6-6.35-6-11.99,0-4.61,1.67-8.42,5.01-11.43,2.6-2.34,5.92-3.78,9.98-4.29,0,0,.72,2.73,1.24,3.49.63.91,2.42,2.07,3.01,3.26.59,1.18,1.78-.05,2.37,0,.89.07,2.03,1.84,2.37,2.66.32.76.19,2.47,0,3.26Z"/>
    <path class="cls-3" d="M81.33,120.25c-2.87,9.23-4.3,19.43-4.3,30.63,0,24.27,5.57,42.94,16.72,56.02,5.61,6.58,12.32,11.5,20.15,14.76.11.05.22.1.33.13h0c.38,1.14,1.22,3.81.88,4.71-.39,1.02-2.59,2.05-3.95,2.21-.19.02-.35.02-.5.01-.75-.06-1.69-1.89-2.44-1.78-1.3.2-3.1,3.52-2.45,4.67.49.85,2.82.93,3.63,1.62.06.05.11.1.15.16.93,1.26.62,4.67.89,6.22.22,1.26,1.56,4.22,1.56,4.89s1.13,4.35.44,5.55c-.92,1.6-4.85,2.81-6.67,3.12-.64.1-2.36.29-3.43.4-.26-.07-.52-.15-.77-.23-1.66-.54-3.31-1.1-4.93-1.71-13.08-4.89-24.22-11.99-33.44-21.31-9.22-9.31-16.3-20.6-21.24-33.86-4.94-13.27-7.41-28.09-7.41-44.45,0-2.07.04-4.12.12-6.15.54-13.71,2.9-26.38,7.08-38.02,4.8-13.36,11.85-24.7,21.17-34.01,9.31-9.32,20.64-16.44,34-21.38,11.36-4.2,24.02-6.62,37.97-7.23h0s.01-.01.02-.01c.31.07,3.82.86,4.27,1.88.28.62-.66,1.95-1.04,2.52-.1.14-.31.36-.47.57-.13.17-.22.34-.17.47.08.21.35.34.68.44l1.36,2.42s-.04.07-.06.1c-.36.58-2.37,1.48-1.93,1.93.45.44.03,1.33,0,1.77-.06.89.51,2.82,1.26,3.36.02.02.05.04.07.05.35.21,1.26-.15,1.63,0,.84.34,1.97,1.89,2.41,2.67.36.65.85,2.81.26,2.96-.59.15,0,2.11,0,2.82,0,.66,2.24,2.52,2.96,2.66.72.14,2.04.82,2.67,1.19.66.39,1.78,1.08,2.63,1.76,0,.01.01.01.01.01.38.31.72.62.92.89.46.62,1.18,2.75,1.27,3.01.01.02.01.03.01.03-4.26-.91-9.06-1.36-14.39-1.36-9.69,0-18.35,1.67-25.97,5.01-7.62,3.34-14.13,8.18-19.54,14.53-5.41,6.35-9.55,14.14-12.42,23.35Z"/>
  </g>
  <g>
    <path class="cls-6" d="M300.63,70.76c-.22.46-.61,1.11-1.07,1.79-.68,1-1.52,2.07-2.21,2.76-.37.37-1,.29-1.28-.15l-17.37-28.56c-.28-.46-.05-1.06.47-1.21.88-.25,2.24-.49,3.54-.64,1.09-.12,2.15-.17,2.87-.1,1.61.16,4.94.86,7.26,2.33.13.09.27.16.37.23,1.86,1.33,4.73,4.8,5.88,6.78,1.09,1.86,2.71,5.95,2.93,8.09.02.16.03.34.04.53.08,2.3-.58,6.33-1.43,8.15Z"/>
    <path class="cls-6" d="M325.4,48.7c-2.29,1.35-5.97,3.54-9.74,5.78-6.31,3.76-12.87,7.68-13.61,8.13,0-.19-.02-.37-.04-.53-.22-2.15-1.84-6.23-2.93-8.09-1.15-1.98-4.02-5.45-5.88-6.78-.1-.08-.23-.15-.37-.23,2.76-1.63,17.62-10.45,23.07-13.64.82-.48,2.96-.4,3.78.09,1.54.91,2.65,3.56,4.02,6,1.29,2.29,2.88,4.35,2.89,6.03,0,.87-.45,2.81-1.2,3.24Z"/>
    <path class="cls-6" d="M308.26,30.16l-5.3,2.98-5.77,3.24c-1.58.89-3.58.33-4.47-1.25l-12.48-22.17c-.89-1.58-.33-3.58,1.25-4.47l11.06-6.23c1.58-.89,3.58-.33,4.47,1.25l12.48,22.17c.89,1.58.33,3.59-1.25,4.48Z"/>
    <path class="cls-6" d="M340.11,85.01l-11.06,6.23c-1.58.89-3.58.33-4.48-1.25l-12.48-22.17c-.89-1.58-.33-3.58,1.25-4.48l11.06-6.23c1.58-.89,3.58-.33,4.48,1.25l12.48,22.17c.89,1.58.33,3.58-1.25,4.47Z"/>
    <line class="cls-7" x1="302.96" y1="33.14" x2="306.03" y2="38.36"/>
    <line class="cls-7" x1="315.64" y1="54.47" x2="318.7" y2="59.69"/>
    <path class="cls-6" d="M340.16,41.5c-.98.28-2.92.55-3.88.45-1.06-.11-3.77-.94-4.63-1.56-1.13-.81-2.87-2.91-3.57-4.11-.02-.04-.05-.09-.07-.13-.66-1.18-1.58-3.52-1.7-4.78-.13-1.31.29-4.07.84-5.26.32-.7,1.29-2.05,1.99-2.76.23-.23.61-.19.77.09l10.54,17.32c.17.28.03.65-.29.73Z"/>
    <line class="cls-5" x1="328.1" y1="36.09" x2="323.91" y2="38.64"/>
    <circle class="cls-2" cx="282.5" cy="63.73" r="2.38"/>
    <line class="cls-4" x1="283.49" y1="63.23" x2="287.17" y2="61.15"/>
    <path class="cls-1" d="M272.83,59.79c-.16,1.08-.66,5.4,2.11,9.63,2.48,3.79,6.04,5.17,7.16,5.55"/>
    <path class="cls-1" d="M265,56.5c-.34,1.35-2.18,9.18,2.64,16.86,4.56,7.26,11.81,9.18,13.28,9.53"/>
  </g>
  <g>
    <path class="cls-2" d="M166.18,238.28c-.58-.8-3.37-1.11-4.54-1.28-.08-.01-.14-.02-.2-.03-.74-.66-1.47-1.34-2.24-1.97-.48-.39-1.13-.51-1.66-.13l-2.32,2.11c-1.26.21-3.77.32-4.76,1.18-.45.39-.23.68,0,1.09.43.74.97,1.6,1.49,2.34.07.11.15.22.22.32,1.13,1.59,3.64,1.65,5.43,1.71,1.65.06,5.4.01,6.53-1.38.56-.69,1.18-1.75,1.66-2.52.27-.44.75-.94.39-1.44ZM156.22,236.39c.4-.36.95-1,1.4-1.27.33-.39.98-.34,1.33,0,.67.44,1.43,1.19,2.05,1.73.11.09.22.19.34.29.47.4.96.82,1.45,1.22.39.31,1.11.58,1.38.89v.02s.02,0,.03.01l.04.05.13.12c-.26.03-.52.11-.78.15-.57.11-1.14.18-1.72.24-.21.07-.46.09-.68.12-1.68.15-3.43.06-5.11.03l-.53-.06h-.08c-.22-.03-.44-.03-.66-.05-.34-.03-.69-.08-1.03-.13-.57-.08-1.13-.24-1.7-.3-.08-.06.4-.33.44-.36.03-.01.13-.1.14-.03.5-.28.6-.4,1.02-.72.89-.68,1.68-1.2,2.54-1.95ZM150.44,238.49c.32-.55,2.22-.95,2.84-1.06.5-.08,1.02-.15,1.53-.17-.35.36-.81.62-1.22.91-.15.1-.27.24-.41.34-.28.19-.64.3-.92.48-.11.07-.34.3-.42.33-.19.05-1.16-.36-1.32-.51-.1-.09-.16-.19-.08-.32ZM164.23,241.79c-.98,1.34-3.3,1.58-4.86,1.64-.65.02-1.37.02-2.02,0-1.32-.04-3.89-.26-4.8-1.31l-.4-.62-.97-1.49,1.37.36c.24.06.49.11.73.15h.02c.25.05.49.08.74.11.02.01.04.01.06.01.35.04.7.07,1.05.1.18.02.35.03.53.05.17.01.35.03.52.05.17.01.35.03.52.05h1.48c.66,0,1.31-.02,1.96-.04.32,0,.61,0,.95-.04,1.43-.14,2.85-.4,4.23-.8-.39.57-.7,1.22-1.11,1.78ZM165.46,239.74c-.28.17-1.1.34-1.45.42-1.46.34-2.94.5-4.44.54-.76,0-1.58.02-2.34,0-.35-.01-.71-.02-1.07-.05-.35-.02-.71-.05-1.07-.09-.24-.03-.47-.06-.71-.09t-.02,0c-.3-.04-.61-.08-.9-.13-.3-.05-.59-.11-.88-.17-.7-.15-1.61-.27-1.91-1.01,1.05.43,2.18.66,3.31.83.28.04.56.07.83.1.12.01.24.02.35.03h.03c.7.06,1.4.08,2.12.11.77.02,1.53-.01,2.3,0,.22,0,.46.07.68.04.08,0,.04-.07.12-.08.25-.04.58-.01.86-.04,1.56-.17,3.16-.41,4.62-.99-.13.16-.26.47-.43.58ZM166.07,238.77c-.13.17-1.26.61-1.44.55-.47-.49-1.14-.69-1.66-1.1-.38-.3-.71-.67-1.1-.96,1.17.12,2.54.28,3.61.79.21.1.83.43.59.72Z"/>
    <path class="cls-2" d="M154.7,234.65l.04-.04s-.03.03-.04.04Z"/>
    <path class="cls-2" d="M154.07,235.27l.12-.12s-.08.08-.12.12Z"/>
    <path class="cls-2" d="M158.95,235.12c.67.44,1.43,1.2,2.05,1.73.58.49,1.19,1.03,1.79,1.51.39.32,1.11.58,1.39.9.02.02.12.15.12.16-.19.02-.38.07-.57.11-.07.01-.15-.03-.13.08-.57.1-1.14.18-1.72.23-1.81.19-3.7.19-5.52.12-.28-.01-.61-.03-.88-.04-.22-.01-.44-.02-.66-.04l-2.61-.47c-.02-.07.02-.08.06-.11.09-.08.29-.18.4-.24.5-.28.59-.39,1.02-.72.88-.68,1.68-1.2,2.53-1.95.41-.36.96-1,1.4-1.27s.89-.29,1.33,0ZM158.76,236.75c.14.14.4-.02.33-.24-.09-.32-.57,0-.33.24ZM157.03,236.92c-.17.04-.23.38-.03.45.42.14.4-.54.03-.45ZM160.26,237.78c-.09.03-.13.3.07.31.32.02.18-.4-.07-.31ZM155.74,238.32c-.17.06-.03.4.17.25.1-.07.05-.32-.17-.25ZM161.87,238.83c-.2-.2-.48.18-.15.29.19.06.25-.18.15-.29ZM159.06,238.83c-.27.08.01.55.21.25.09-.14-.08-.29-.21-.25ZM154.96,238.91c-.09-.09-.3-.09-.31.09-.02.36.51.11.31-.09Z"/>
    <path class="cls-2" d="M156.73,240.89c.36.04.71.04,1.07.04.07,0,.17.02.21-.04h.2c.04.06.15.04.21.04.53,0,1.08.02,1.6,0,.08,0,.16.04.13-.08.33,0,.62,0,.96-.04,1.43-.14,2.85-.41,4.23-.8-.4.57-.71,1.21-1.11,1.77-.98,1.35-3.3,1.59-4.85,1.64h-2.03c-1.32-.04-3.89-.26-4.8-1.31l-1.37-2.11,1.37.35c1.37.34,2.8.37,4.18.53Z"/>
    <path class="cls-2" d="M157.31,240.23c-.02.12.06.08.13.08.65.03,1.38.02,2.03,0,.08,0,.16.04.13-.08.22,0,.46.07.69.04.07,0,.04-.07.11-.08.25-.03.58,0,.86-.04,1.56-.17,3.16-.41,4.62-1-.13.16-.26.48-.43.58-.28.17-1.1.34-1.45.43-1.46.34-2.95.5-4.44.53h-2.34c-1.51-.04-3.17-.2-4.64-.53-.7-.15-1.62-.27-1.91-1.02,1.05.43,2.18.67,3.3.83s2.2.21,3.33.24Z"/>
    <path class="cls-2" d="M154.81,237.26c-.34.36-.81.62-1.22.9-.15.1-.27.24-.4.34-.28.2-.64.3-.92.48-.11.07-.34.31-.42.33-.19.05-1.17-.36-1.33-.51-.1-.09-.15-.19-.08-.32.33-.55,2.22-.95,2.84-1.06.5-.09,1.02-.15,1.53-.17Z"/>
    <path class="cls-2" d="M166.08,238.77c-.13.17-1.26.6-1.44.55-.47-.49-1.14-.7-1.66-1.11-.38-.3-.71-.66-1.1-.95,1.17.12,2.53.28,3.6.79.21.1.83.43.6.72Z"/>
    <path class="cls-2" d="M161.88,239.84c-.21.07-.46.1-.68.12-1.68.16-3.42.06-5.11.04l-.61-.08c.26.01.59.03.88.04,1.82.07,3.71.07,5.52-.12Z"/>
    <path class="cls-2" d="M152.67,239.06c-.11.06-.32.16-.4.24-.04.03-.08.04-.06.11l2.61.47c-.34-.03-.69-.07-1.03-.12-.57-.09-1.14-.24-1.7-.31-.07-.06.4-.33.44-.36.03-.02.13-.1.14-.03Z"/>
    <path class="cls-2" d="M159.61,240.23c.02.12-.06.08-.13.08-.65.02-1.38.03-2.03,0-.08,0-.16.04-.13-.08.77.02,1.53,0,2.3,0Z"/>
    <path class="cls-2" d="M159.57,240.7c-.76.02-1.58.02-2.34,0h2.34Z"/>
    <path class="cls-2" d="M160.16,240.85c.02.12-.06.08-.13.08-.52.02-1.08,0-1.6,0-.07,0-.17.03-.21-.04.65,0,1.3-.02,1.95-.04Z"/>
    <path class="cls-2" d="M159.38,243.43c-.65.02-1.38.02-2.03,0h2.03Z"/>
    <path class="cls-2" d="M158.95,235.12c-.44-.29-.89-.27-1.33,0,.33-.39.98-.34,1.33,0Z"/>
    <path class="cls-2" d="M164.18,239.25l.19.19c-.26.03-.52.11-.78.16-.02-.12.06-.07.13-.08.19-.04.38-.09.57-.11,0,0-.1-.13-.12-.16Z"/>
    <path class="cls-2" d="M158.01,240.89c-.04.06-.15.04-.21.04-.37,0-.72,0-1.07-.04.43,0,.86,0,1.29,0Z"/>
    <path class="cls-2" d="M157.03,236.92c.37-.1.39.59-.03.45-.2-.07-.14-.4.03-.45Z"/>
    <path class="cls-2" d="M158.76,236.75c-.23-.23.24-.55.33-.24.06.21-.2.38-.33.24Z"/>
    <path class="cls-2" d="M161.87,238.83c.11.11.04.35-.15.29-.34-.1-.05-.49.15-.29Z"/>
    <path class="cls-2" d="M159.06,238.83c.13-.04.3.11.21.25-.2.3-.48-.17-.21-.25Z"/>
    <path class="cls-2" d="M154.96,238.91c.2.2-.33.45-.31.09.01-.18.22-.18.31-.09Z"/>
    <path class="cls-2" d="M160.26,237.78c.26-.09.39.33.07.31-.2-.01-.17-.28-.07-.31Z"/>
    <path class="cls-2" d="M155.74,238.32c.22-.07.27.18.17.25-.2.14-.34-.2-.17-.25Z"/>
  </g>
  <g>
    <path class="cls-2" d="M175.14,171.46c-.12-.3-.6-.81-.91-.91-.2-.06-.39-.02-.57.09-.04.02-.21.13-.21.19,0,.01.01.02.02.03.05.02.21.03.28.04.1.03.36.14.32.27-.02.07-.27.26-.28.32,0,.02.01.04.01.06l-.87.88c-.31-.28-.62-.57-.9-.87-.04-.04-.12-.08-.13-.15-.01-.1.13-.28.19-.35.15-.17.35-.33.55-.45v-.03c0-.08-.16-.05-.22-.04-.21.04-.49.19-.66.32-.04.03-.2.18-.22.18-.05.01-.07-.06-.12-.04-.04.06-.24.23-.24.29,0,.03.02.05.02.07,0,.05-.13.19-.16.24-.11.17-.35.62-.32.83,0,.05.05.07.09.04.18-.21.35-.47.57-.65.11-.09.17-.11.3-.01l.91.94-1.11,1.13c-.06.1.08.23.15.28s.11.05.18,0l1.1-1.1.96.98c.13.1.18.21.34.08.23-.19.15-.26-.02-.43-.32-.32-.66-.61-.96-.95l.88-.88s.06.03.09.02c.05-.03.18-.2.24-.24.04-.03.06-.04.11-.03.13.01.29.25.35.36.05.09.11.33.21.19.11-.17.1-.52.03-.7ZM172.52,170.6c-.36.05-.69.26-.96.51-.05.02-.09-.04-.12-.03-.01,0-.18.18-.18.2-.02.05.01.06.01.09,0,.04-.18.28-.22.33-.13.21-.23.45-.27.7.19-.21.36-.48.59-.65.11-.08.17-.1.3-.04l.2-.2c-.02-.05-.04-.08-.04-.13.01-.14.22-.38.32-.48l.37-.3ZM172.85,172.46c-.28-.31-.62-.58-.9-.88l-.03-.02-.19.2c.26.28.52.55.81.82h0s.02.03.03.05c.02.02.03.03.06.06.01,0,.01.02.02.02s0-.02.02-.02c.06-.05.13-.12.18-.18,0-.01.02-.01.02-.02.01-.02-.02-.02-.02-.03ZM173.95,173.56l-.02-.02h-.01s-.01-.02-.02-.03c-.19-.19-.37-.39-.57-.57-.02,0-.03-.01-.03-.02,0,0-.01-.01-.01-.02,0-.02-.08-.1-.11-.1l-.21.21c.11.14.25.26.37.39.2.2.43.48.64.66.05.03.07.05.13.04.04-.01.18-.15.18-.19,0-.07-.28-.29-.34-.35ZM173.84,171.61l-1.04,1.04s-.02.02-.04.04c0,0-.02.01-.02.02l-.07.07-.21.21h-.01s-.05.06-.07.08h-.01c-.18.19-.36.37-.54.55h-.01c-.06.07-.11.12-.16.17,0,.01-.03.02-.04.04-.03.03-.1.07-.09.12,0,.03.15.17.18.18.05,0,.14-.08.17-.12v-.02s.02,0,.02-.01c.11-.08.19-.19.29-.29.01,0,.01-.01.02-.02.09-.08.17-.16.25-.25l.04-.04s.05-.04.07-.07c.06-.06.11-.12.17-.18.09-.09.18-.17.26-.26l.12-.12.02-.02s.01-.01.02-.02h.01s.07-.06.09-.1c.09-.08.17-.17.26-.26l.53-.53-.21-.21ZM175.08,171.48c-.12-.29-.65-.87-.98-.89-.22-.02-.38.09-.56.2v.02c.17,0,.36.05.48.15.29.23-.04.36-.16.55,0,0,.01.03.02.04.03.04.19.21.22.24.03.01.05.03.08.01.04-.02.16-.17.21-.21.22-.16.42.12.53.28l.14.25c.09-.2.1-.43.02-.64Z"/>
    <g>
      <path class="cls-2" d="M175.06,172.12l-.14-.25c-.11-.16-.31-.44-.53-.28-.05.04-.17.19-.21.21-.03.02-.05,0-.08-.01-.03-.03-.19-.2-.22-.24-.01-.01-.02-.03-.02-.04.12-.19.45-.32.16-.55-.12-.1-.31-.15-.47-.15v-.02c.17-.11.33-.22.55-.2.33.02.86.6.98.89.08.21.07.44-.02.64Z"/>
      <path class="cls-2" d="M174.05,171.82l-.53.53c-.09.09-.17.18-.26.26-.03.03-.07.05-.09.09h-.01s-.02.03-.02.03l-.02.02-.12.12c-.08.09-.17.17-.26.26-.06.05-.13.11-.17.18-.02.03-.04.05-.07.07h-.01s-.01.01-.02.01c-.01,0,0,.03-.01.03-.08.09-.16.17-.25.25-.02,0-.03,0-.02.02-.1.1-.18.21-.29.29t-.01.01h-.02s.01.02.01.02c-.03.04-.12.12-.17.12-.03-.01-.18-.15-.18-.18-.01-.05.06-.09.09-.12.01-.02.03-.03.04-.04.05-.05.1-.1.16-.16h.01c.18-.19.36-.37.54-.55h.01s.05-.06.07-.08h.01s.21-.22.21-.22c.03,0,.06-.04.07-.07,0,0,.02-.02.02-.02.03,0,.04-.02.05-.03h-.01s1.04-1.05,1.04-1.05l.21.21Z"/>
      <path class="cls-2" d="M172.15,170.9c-.1.1-.31.34-.32.48,0,.05.02.08.04.13l-.2.2c-.13-.06-.19-.04-.3.04-.23.17-.4.44-.59.65.04-.25.14-.49.27-.7.04-.05.22-.29.22-.33,0-.03-.03-.04-.01-.09,0-.02.17-.2.18-.2.03,0,.07.05.12.03.27-.25.6-.46.96-.51l-.37.3Z"/>
      <path class="cls-2" d="M174.29,173.91s-.14.18-.18.19c-.06.01-.08-.01-.13-.04-.21-.18-.44-.46-.64-.66-.12-.13-.26-.25-.37-.39l.21-.21s.1.08.11.1c0,.01.01.02.01.02,0,.01.01.02.03.02.2.18.38.38.57.57l.02.02h.01s.01.02.02.03c.06.06.33.28.34.35Z"/>
      <path class="cls-2" d="M172.85,172.46v.05c-.05.06-.12.13-.18.18h-.04s-.04-.04-.06-.06c0-.03-.01-.04-.03-.04h0c-.29-.28-.55-.55-.81-.83l.19-.2.03.02c.28.3.62.57.9.88Z"/>
    </g>
    <path class="cls-2" d="M172.87,172.49s-.02.01-.02.02v-.05s.03.01.02.03Z"/>
    <path class="cls-2" d="M172.67,172.69s-.01.02-.02.02-.01-.02-.02-.02h.04Z"/>
    <path class="cls-2" d="M172.81,172.66s-.02.03-.05.03c.02-.02.03-.02.04-.04h.01Z"/>
    <path class="cls-2" d="M172.74,172.71s-.04.07-.07.07l.07-.07Z"/>
    <path class="cls-2" d="M172.49,173.39l-.03.03s0-.02.01-.03h.02Z"/>
  </g>
  <path class="cls-2" d="M102.34,253.57c-.53.06-.9.1-.9.1l.13-.33c.25.08.51.16.77.23Z"/>
  <path class="cls-3" d="M228.23,155.25c-2.49-3.57-5.76-5.88-9.81-6.91-4.04-1.04-8.98-1.56-14.81-1.56h-34.73s1.34,1.26,1.49,1.83c.04.13-.06.43,0,.56.28.51,1.49.96,1.95,1.33.24.18.68.61.79.89.09.26,0,.78,0,1.11s-1.7.29-2.26.22c-.65-.08-1.63-.33-2.52-.72-.89-.38-.71-1.18-.67-1.61.08-.9,0-3.61,0-3.61h-11.61c-1.27,0-2.49.07-3.64.23,0,0,.72,2.73,1.24,3.49.63.91,2.42,2.07,3.01,3.26.59,1.18,1.78-.05,2.37,0,.89.07,2.03,1.84,2.37,2.66.32.76.19,2.47,0,3.26-.24,1.04-1.46,3-2.37,3.56-1.48.92-5.28.66-6.81,1.48-.69.37-1.69,1.64-2.08,2.32-.64,1.13-1.22,3.79-2.07,4.77-.89,1.04-4.65,2.91-4.65,2.91,4,2.36,9.9,3.53,17.71,3.53h32.46v33.59c-8.75,4.7-17.39,8.32-25.9,10.86-8.51,2.54-17.62,3.81-27.3,3.81s-18.5-1.57-26.16-4.71c.38,1.13,1.22,3.8.88,4.7-.39,1.02-2.59,2.05-3.95,2.21-.19.02-.35.02-.5.01-.75-.06-1.69-1.89-2.44-1.78-1.3.2-3.1,3.52-2.45,4.67.49.85,2.82.93,3.63,1.62.06.05.11.1.15.16.93,1.26.62,4.67.89,6.22.22,1.26,1.56,4.22,1.56,4.89s1.13,4.35.44,5.55c-.92,1.6-4.85,2.81-6.67,3.12-.64.1-2.36.29-3.43.4,3.35,1.04,6.77,1.93,10.29,2.67,8.63,1.82,17.78,2.73,27.47,2.73,13.64,0,26.25-1.55,37.82-4.66,11.57-3.1,23.61-8.04,36.13-14.81,4.32-2.35,7.88-4.8,10.65-7.34,2.78-2.54,4.68-5.39,5.72-8.54,1.03-3.15,1.55-7.36,1.55-12.63v-39.65c0-7.15-1.25-12.51-3.74-16.09ZM166.88,162.05c-1.35,0-2.44-.47-2.44-1.05s1.09-1.06,2.44-1.06,2.45.48,2.45,1.06-1.1,1.05-2.45,1.05ZM175.11,172.16c-.1.14-.16-.1-.21-.19-.06-.11-.22-.35-.35-.36-.05-.01-.07,0-.11.03-.06.04-.19.21-.24.24-.03.01-.06,0-.09-.02l-.88.88c.3.34.64.63.96.95.17.17.25.24.02.43-.16.13-.21.02-.34-.08l-.96-.98-1.1,1.1c-.07.05-.11.05-.18,0s-.21-.18-.15-.28l1.11-1.13-.91-.94c-.13-.1-.19-.08-.3.01-.22.18-.39.44-.57.65-.04.03-.08.01-.09-.04-.03-.21.21-.66.32-.83.03-.05.16-.19.16-.24,0-.02-.02-.04-.02-.07,0-.06.2-.23.24-.29.05-.02.07.05.12.04.02,0,.18-.15.22-.18.17-.13.45-.28.66-.32.06-.01.22-.04.22.04v.03c-.2.12-.4.28-.55.45-.06.07-.2.25-.19.35,0,.07.09.11.13.15.28.3.59.59.9.87l.87-.88s-.02-.04-.01-.06c.01-.06.26-.25.28-.32.04-.13-.22-.24-.32-.27-.07,0-.23-.02-.28-.04-.01-.01-.02-.02-.02-.03,0-.06.17-.17.21-.19.18-.11.37-.15.57-.09.31.1.79.61.91.91.07.18.08.53-.03.7ZM128.37,253.44c-.08,0-.16,0-.24-.01-.09,0-.17,0-.24-.01-.15-.01-.29-.02-.44-.05-.15-.02-.29-.04-.43-.07-.07-.01-.14-.03-.2-.05-.04-.01-.08-.02-.12-.03-.06-.02-.12-.03-.17-.05-.08-.02-.17-.05-.25-.09-.08-.03-.17-.06-.25-.1-.1-.04-.2-.09-.29-.14-.28-.14-.52-.31-.71-.51-.08-.08-.15-.16-.22-.24-.03-.05-.06-.09-.09-.14-.02-.05-.05-.1-.07-.14-.05-.09-.08-.18-.1-.28-.03-.1-.04-.2-.04-.3,0-1.22,1.73-2.21,3.86-2.21.16,0,.32.01.48.02.11,0,.21.01.3.03.1,0,.18.02.27.04.13.01.25.04.37.07.11.02.23.05.33.09.14.04.27.08.4.13.41.16.77.36,1.05.61.04.03.08.06.11.1.04.04.08.08.11.11.09.1.17.2.23.31.02.02.03.05.04.08.11.2.16.41.16.62,0,1.22-1.73,2.21-3.85,2.21ZM134.66,235.98c-1.35,0-2.44-1.79-2.44-4s1.09-4,2.44-4,2.45,1.79,2.45,4-1.1,4-2.45,4ZM155.98,234.77s-.05.05-.08.07c-.01-.07,0-.09.08-.07ZM154.97,235.78l-.08.08s-.04-.02-.02-.04c.03-.04.08-.03.1-.04ZM144.07,246.2c-.12,0-.24-.01-.36-.04-.1-.02-.19-.04-.28-.08-.21-.08-.39-.19-.55-.35-.05-.04-.09-.08-.13-.13h-.01c-.07-.07-.13-.16-.18-.25-.11-.17-.19-.36-.23-.57-.03-.12-.04-.24-.04-.36,0-.98.8-1.77,1.78-1.77.12,0,.24.01.36.04.1.02.19.04.28.08.04.01.08.03.11.05.06.02.12.06.17.09t.02.01s.06.04.08.06c.07.04.13.09.19.15.08.07.15.15.21.23,0,0,.01,0,.01.01.05.07.09.13.12.2.03.03.05.07.06.11.02.02.03.05.03.07.08.17.12.36.13.55,0,.04,0,.08,0,.12,0,.99-.8,1.78-1.78,1.78ZM165.79,239.72c-.48.77-1.1,1.83-1.66,2.52-1.13,1.39-4.88,1.44-6.53,1.38-1.79-.06-4.3-.12-5.43-1.71-.07-.1-.15-.21-.22-.32-.52-.74-1.06-1.6-1.49-2.34-.23-.41-.45-.7,0-1.09.99-.86,3.5-.97,4.76-1.18l2.32-2.11c.53-.38,1.18-.26,1.66.13.77.63,1.5,1.31,2.24,1.97.06.01.12.02.2.03,1.17.17,3.96.48,4.54,1.28.36.5-.12,1-.39,1.44Z"/>
  <path class="cls-2" d="M114.23,221.79c-.11-.03-.22-.08-.33-.13l.15-.38s.07.19.18.51Z"/>
  <path class="cls-2" d="M132.22,251.23c0,1.22-1.73,2.21-3.85,2.21-.08,0-.16,0-.24-.01-.09,0-.17,0-.24-.01-.15-.01-.29-.02-.44-.05-.15-.02-.29-.04-.43-.07-.07-.01-.14-.03-.2-.05-.04-.01-.08-.02-.12-.03-.06-.02-.12-.03-.17-.05-.08-.02-.17-.05-.25-.09-.08-.03-.17-.06-.25-.1-.1-.04-.2-.09-.29-.14-.28-.14-.52-.31-.71-.51-.08-.08-.15-.16-.22-.24-.03-.05-.06-.09-.09-.14-.02-.05-.05-.1-.07-.14-.05-.09-.08-.18-.1-.28-.03-.1-.04-.2-.04-.3,0-1.22,1.73-2.21,3.86-2.21.16,0,.32.01.48.02.11,0,.21.01.3.03.1,0,.18.02.27.04.13.01.25.04.37.07.11.02.22.05.33.09.14.04.27.08.4.13.41.16.77.36,1.05.61.04.03.08.06.11.1.04.04.08.08.11.11.09.1.17.2.23.31.02.02.03.05.04.08.11.2.16.41.16.62Z"/>
  <path class="cls-2" d="M137.11,231.98c0,2.21-1.1,4-2.45,4s-2.44-1.79-2.44-4,1.09-4,2.44-4,2.45,1.79,2.45,4Z"/>
  <path class="cls-2" d="M145.85,244.42c0,.99-.8,1.78-1.78,1.78-.12,0-.24-.01-.36-.04-.1-.02-.19-.04-.28-.08-.21-.08-.39-.19-.55-.35-.05-.04-.09-.08-.13-.13-.07-.08-.14-.16-.19-.25-.11-.17-.19-.36-.23-.57-.03-.12-.04-.24-.04-.36,0-.98.8-1.77,1.78-1.77.12,0,.24.01.36.04.1.02.19.04.28.08.04.01.08.03.11.05.06.02.12.05.17.09t.02.01s.06.04.08.06c.07.04.13.09.19.15.08.07.15.15.21.23,0,0,.01,0,.01.01.05.07.09.13.12.2.03.03.05.07.06.11.02.02.03.05.03.07.08.17.12.36.13.55,0,.04,0,.08,0,.12Z"/>
  <path class="cls-2" d="M142.75,245.6h-.01c-.07-.07-.13-.16-.18-.25.05.09.12.17.19.25Z"/>
  <path class="cls-3" d="M225.62,99.37c0,5.27-1.95,9.76-5.86,13.48-3.9,3.71-8.58,5.57-14.04,5.57-3.01,0-5.9-.71-8.68-2.12-2.77-1.41-5.1-3.38-6.98-5.92-5.18-8.09-9.55-14.21-13.13-18.35-3.57-4.14-8.39-7.62-14.46-10.44-2.62-1.22-5.56-2.18-8.82-2.87,0,0,0-.01-.01-.03-.09-.26-.81-2.39-1.27-3.01-.2-.27-.54-.58-.92-.89,0,0-.01,0-.01-.01-.85-.68-1.97-1.37-2.63-1.76-.63-.37-1.95-1.05-2.67-1.19-.72-.14-2.96-2-2.96-2.66,0-.71-.59-2.67,0-2.82.59-.15.1-2.31-.26-2.96-.44-.78-1.57-2.33-2.41-2.67-.37-.15-1.28.21-1.63,0-.02-.01-.05-.03-.07-.05-.75-.54-1.32-2.47-1.26-3.36.03-.44.45-1.33,0-1.77-.44-.45,1.57-1.35,1.93-1.93.02-.03.04-.06.06-.1l-1.36-2.42c-.33-.1-.6-.23-.68-.44-.05-.13.04-.3.17-.47.16-.21.37-.43.47-.57.38-.57,1.32-1.9,1.04-2.52-.45-1.02-3.96-1.81-4.27-1.88,2.44-.11,4.93-.17,7.45-.17,8.76,0,16.89.74,24.38,2.2,4.42.87,8.62,1.99,12.59,3.37,10.73,3.72,19.43,8.4,26.11,14.05,6.68,5.64,11.71,11.62,15.1,17.92,3.39,6.3,5.08,11.9,5.08,16.79Z"/>
  <path class="cls-2" d="M173.11,152.5c0,.33-1.7.29-2.26.22-.65-.08-1.63-.33-2.52-.72-.89-.38-.71-1.18-.67-1.61.08-.9,0-3.61,0-3.61h1.22s1.34,1.26,1.49,1.83c.04.13-.06.43,0,.56.28.51,1.49.96,1.95,1.33.24.18.68.61.79.89.09.26,0,.78,0,1.11Z"/>
  <path class="cls-2" d="M169.33,161c0,.58-1.1,1.05-2.45,1.05s-2.44-.47-2.44-1.05,1.09-1.06,2.44-1.06,2.45.48,2.45,1.06Z"/>
</svg>