<?xml version="1.0" encoding="UTF-8"?>
<svg id="Layer_2" data-name="Layer 2" xmlns="http://www.w3.org/2000/svg" viewBox="0 0 138.23 82.99">
  <g id="Layer_1-2" data-name="Layer 1">
    <g>
      <path d="M59.08,32.84L67.67,1.81c1.34-.94,6.72-1.17,7.76.67l7.77,30.96,7.92-30.22c1.29-3.08,5.08-1.78,7.81-1.9l.25,2.19-12.35,38.33c-1.19.92-7.04,1.06-8.05-.4l-7.49-30.05-7.32,29.03c-2.29,3.3-7.73,3.1-9.52-.86-3.02-6.63-9.19-27.37-10.59-34.69-.23-1.21-.4-2.37-.28-3.6,2.18.35,6.34-.91,7.7.95l7.8,30.63Z"/>
      <path d="M.99,54.29c.8-.21,12.68,6.34,14.77,7.25,33.87,14.76,73.43,15.13,107.41.49,8.81,1.14-4.72,8.37-7.49,9.84-34.67,18.38-81.15,13.6-111.12-11.65-1.07-.9-6.84-5.09-3.57-5.94Z"/>
      <path d="M32.25,37.01c-8.87,10.38-27.99,8.49-26.21-8.05,1.28-11.9,16.78-12.12,25.62-9.83,1.54-16.44-11.92-13.21-22.61-9.56C4.85,1,20.66-.38,25.99.08c21.06,1.83,9.27,26.24,15.54,38.77-.33,1.45-3.76,3.53-5.38,3.54-1.65-.17-3.59-3.75-3.9-5.38ZM31.63,24.53c-5.85-.68-17.22-3.02-17.7,5.78-.42,7.83,8.72,8.21,13.76,4.82,3.3-2.22,4.19-6.84,3.94-10.6Z"/>
      <path d="M129.97,9.01c-4.72-1.74-9.4-3.14-14.55-2.35-3.66.56-6.33,3.72-4.43,7.34,2.74,5.21,19.82,4.12,21.33,13.82,2.31,14.85-14,18.02-25.11,14.39-3.73-1.22-7.2-3.38-4.26-7.53,4.57,1.43,18.85,4.9,21.35-.65,3.77-8.37-10.39-8.93-15.21-11.58-11.81-6.48-6.18-20.92,6.35-22.31,5.35-.59,18.37.69,14.53,8.87Z"/>
      <path d="M112.7,57.86c-1.71-1.65,5.31-4.5,6.22-4.79,3.69-1.17,16.12-2.32,18.82.31,2.08,8.57-2.7,18.52-9.26,24.14l-1.48-.9c1.19-3.55,6.44-15.01,4.23-17.92-2.38-3.12-14.72-.41-18.52-.84Z"/>
    </g>
  </g>
</svg>