<?xml version="1.0" encoding="UTF-8"?>
<svg id="Layer_2" data-name="Layer 2" xmlns="http://www.w3.org/2000/svg" viewBox="0 0 55.3 44.6">
  <defs>
    <style>
      .cls-1 {
        fill: #fff;
      }
    </style>
  </defs>
  <g id="Layer_1-2" data-name="Layer 1">
    <g>
      <g>
        <path d="M44.91,0v28.72c0,.11.52,1.81.62,2.04,1.44,3.43,5.82,4.5,8.25,1.51-.36-.43-.94-.32-1.41-.58-1.43-.79-1.41-3.34-1.69-4.74l-.05-24.8C49.43.29,46.96-.04,44.91,0Z"/>
        <path d="M53.06.93c-2.13.48-1.21,3.83.78,3.47,2.14-.39,1.93-4.08-.78-3.47Z"/>
        <path d="M22.95,35.94c-1.05.3-1.7,2.2-1.77,3.22-.24,3.4,3.81,4.77,6.57,5.19,6.83,1.03,14.61-.77,13.85-9.19-.56-6.27-8.56-4.67-12.78-4.97-1.09-.08-2.97-.19-2.77-1.66.18-1.29,1.55-.57,2.33-.56,3.38.07,5.77.03,8.53-2.14,3.27-2.57,4.76-6.23,4.21-10.38-.33-2.45-1.74-3.08.16-5.44.2-.24.76-.92.98-1.01.53-.23,2.03.18,1.99-.23-.03-.36-1.45-1.14-1.89-1.2-2.63-.42-3.05,1.33-4.97,2.43.75,1.49,1.79,2.53,2.28,4.26,2.85,10.01-8.93,16.67-16.37,9.94-1.89,2.35-3.71,4.4-2.23,7.54,1.84,3.9,8.76,2.53,12.21,2.88,3.65.37,3.32,4.19.46,5.11-3.18,1.02-10.41.66-10.77-3.78Z"/>
        <path d="M33.38,8.66c-7.95-2.76-15.46,5.84-10.76,13.08l.11-1.11h.89c.34-1.34-1.14-1.35-1.11-2.66l1.09.02c-.28,1.93,1.95,1.69,1.25-.26l-1-.21.1-1.33h.9s.11,1.34.11,1.34l1.27-.06.48-.31-.21-1.61h-1.1c-.12-.98.01-2.08,1.23-1.36l.1,1.34,1.79-.11v-1.67s-1.34,0-1.34,0v-1.55s1.56,0,1.56,0v1.33s1.77,0,1.77,0v-1.55s-1.12-.1-1.12-.1l-.18-.99,1.17-.23.38,1.08,1.54.24-.02-1.31-1.16-.25c-.49-.28.07-1.15.84-.87.39.14.21.69.51.88.16.1,1.32.28,1.4.21.32-1.19-1.31-1.17-1.33-1.44-.02-.25.55-.39.77-.11l.11-.44Z"/>
        <path d="M17.4,18.63c5.19-8.01-6.23-9.08-11.54-7.88C1.35,11.77-.5,14.86.12,19.39c.76,5.59,9.09,4.15,12.62,5.57,1.58.63,1.98,2.01.99,3.42-1.56,2.24-8.95,1.69-10.49-.8-.4-.22-.55-2.27-1.03-2.07-.21.09-1.27,1.62-1.41,1.92-2.16,4.68,3.37,6.46,6.96,6.73,6.21.46,13.5-1.28,12.04-9.15-1.1-5.94-8.77-4.6-12.65-5.98-.81-.29-1.47-.63-1.46-1.61.02-3.64,7.48-2.74,9.58-1.4,1.07.68,1.18,1.32,1.68,2.31.12.23-.11.42.46.31Z"/>
        <polygon points="32.72 13.52 33.95 13.33 33.95 12.41 32.49 12.2 32.72 13.52"/>
        <polygon points="32.27 15.31 32.06 13.85 30.71 13.75 30.71 15.31 32.27 15.31"/>
        <polygon points="30.27 15.75 28.72 15.75 28.72 17.3 30.27 17.3 30.27 15.75"/>
        <path d="M33.08,15.8c-.9.32-.16,1.82.76,1.18.63-.44.06-1.47-.76-1.18Z"/>
        <rect x="26.94" y="17.75" width="1.33" height="1.33"/>
        <rect x="30.94" y="17.75" width="1.11" height="1.33"/>
        <polygon points="26.5 19.52 25.17 19.52 25.38 20.76 26.5 20.85 26.5 19.52"/>
        <rect x="28.94" y="19.74" width="1.11" height="1.11"/>
        <path d="M24.91,21.11l-1.07.08c.27.64.51,1.23,1.33,1.22l-.25-1.3Z"/>
      </g>
      <path class="cls-1" d="M17.4,18.63c-.57.1-.34-.08-.46-.31-.5-1-.61-1.63-1.68-2.31-2.1-1.34-9.56-2.24-9.58,1.4,0,.99.65,1.33,1.46,1.61,3.88,1.38,11.55.04,12.65,5.98,1.46,7.87-5.82,9.61-12.04,9.15-3.59-.27-9.11-2.04-6.96-6.73.14-.3,1.2-1.83,1.41-1.92.48-.2.63,1.84,1.03,2.07,1.54,2.49,8.93,3.04,10.49.8.99-1.42.59-2.79-.99-3.42-3.53-1.42-11.86.03-12.62-5.57-.62-4.54,1.24-7.62,5.74-8.64,5.32-1.2,16.73-.13,11.54,7.88Z"/>
      <path class="cls-1" d="M22.95,35.94c.36,4.45,7.6,4.8,10.77,3.78,2.87-.92,3.19-4.75-.46-5.11-3.45-.35-10.37,1.02-12.21-2.88-1.49-3.14.33-5.19,2.23-7.54,7.44,6.74,19.22.07,16.37-9.94-.49-1.73-1.52-2.76-2.28-4.26,1.93-1.1,2.34-2.85,4.97-2.43.44.07,1.86.84,1.89,1.2.04.41-1.46,0-1.99.23-.22.1-.79.77-.98,1.01-1.9,2.36-.49,2.99-.16,5.44.55,4.15-.93,7.81-4.21,10.38-2.77,2.17-5.15,2.2-8.53,2.14-.78-.02-2.15-.73-2.33.56-.2,1.46,1.68,1.58,2.77,1.66,4.21.3,12.21-1.29,12.78,4.97.75,8.42-7.02,10.22-13.85,9.19-2.75-.41-6.81-1.79-6.57-5.19.07-1.02.72-2.92,1.77-3.22Z"/>
      <path class="cls-1" d="M44.91,0c2.05-.04,4.52.29,5.72,2.15l.05,24.8c.28,1.4.26,3.96,1.69,4.74.47.26,1.05.15,1.41.58-2.43,2.99-6.81,1.92-8.25-1.51-.1-.24-.62-1.93-.62-2.04V0Z"/>
      <path class="cls-1" d="M33.38,8.66l-.11.44c-.22-.28-.78-.14-.77.11.02.27,1.64.25,1.33,1.44-.08.07-1.24-.11-1.4-.21-.3-.19-.12-.74-.51-.88-.77-.28-1.33.59-.84.87l1.16.25.02,1.31-1.54-.24-.38-1.08-1.17.23.18.99,1.12.1v1.55s-1.78,0-1.78,0v-1.33s-1.55,0-1.55,0v1.55s1.33,0,1.33,0v1.67s-1.78.11-1.78.11l-.1-1.34c-1.22-.72-1.35.37-1.23,1.34h1.1s.21,1.63.21,1.63l-.48.31-1.27.06-.11-1.34h-.9s-.1,1.33-.1,1.33l1,.21c.69,1.95-1.53,2.19-1.25.26l-1.09-.02c-.03,1.3,1.45,1.32,1.11,2.66h-.89s-.11,1.11-.11,1.11c-4.7-7.24,2.81-15.84,10.76-13.08Z"/>
      <path class="cls-1" d="M53.06.93c2.72-.61,2.93,3.08.78,3.47-2,.36-2.91-2.99-.78-3.47Z"/>
      <polygon class="cls-1" points="32.27 15.31 30.71 15.31 30.71 13.75 32.06 13.85 32.27 15.31"/>
      <polygon class="cls-1" points="30.27 15.75 30.27 17.3 28.72 17.3 28.72 15.75 30.27 15.75"/>
      <polygon class="cls-1" points="32.72 13.52 32.49 12.2 33.95 12.41 33.95 13.33 32.72 13.52"/>
      <rect class="cls-1" x="26.94" y="17.75" width="1.33" height="1.33"/>
      <polygon class="cls-1" points="26.5 19.52 26.5 20.85 25.38 20.76 25.17 19.52 26.5 19.52"/>
      <path class="cls-1" d="M33.08,15.8c.81-.29,1.39.74.76,1.18-.92.64-1.66-.86-.76-1.18Z"/>
      <rect class="cls-1" x="30.94" y="17.75" width="1.11" height="1.33"/>
      <rect class="cls-1" x="28.94" y="19.74" width="1.11" height="1.11"/>
      <path class="cls-1" d="M24.91,21.11l.25,1.3c-.82.01-1.06-.58-1.33-1.22l1.07-.08Z"/>
    </g>
  </g>
</svg>