<?xml version="1.0" encoding="UTF-8"?>
<svg id="Layer_2" data-name="Layer 2" xmlns="http://www.w3.org/2000/svg" viewBox="0 0 78.1 75.73">
  <defs>
    <style>
      .cls-1 {
        fill: #fff;
      }
    </style>
  </defs>
  <g id="Layer_1-2" data-name="Layer 1">
    <g>
      <path class="cls-1" d="M42.37,3.14c.76.76.87,2.49.81,3.51-.43,7.06-6.41,7.26-11.05,10.78-14.42,10.94-22.26,37.54-10.62,52.9.24.32,1.29,1.38,1.36,1.52.08.19-.03.28-.22.22-.63-.19-2.54-1.26-3.21-1.64C2.66,60.93-3.62,40.08,2.02,22.04,5.46,11.04,16.58-.86,29.01.05c2.93.21,4.83,2.08,7.16,2.39,1.65.22,5.05-.46,6.2.7ZM28.89,3.73c-1.46.34-1.24,2.87.52,2.76,2.07-.12,1.65-3.26-.52-2.76Z"/>
      <path class="cls-1" d="M67.44,47.36c.9,9.55-2.61,19.87-11.27,24.74-3.22,1.81-6.63,2.59-10.27,3.08-2.35-3.09-4.78-6.54-7.72-9.1-1.24-1.08-2.85-2.33-4.55-2.35,2.58,3.76,5.23,7.61,6.67,11.98-3.77.11-7.65-.34-11.05-2.06-13.39-6.78-11.13-28.7-5.91-40.14.54-1.18,1.16-2.35,1.87-3.43-.27,10.45,7.03,19.7,16.99,22.43,7.24,1.98,15.16-.04,21.85-2.99l3.38-2.15Z"/>
      <path class="cls-1" d="M65.01,65.71l1.84-2.78c3.79-6.81,4-18.27-.11-24.96s-11.52-10.65-18.83-13.32c-.19-.07-.4.07-.33-.26,5.31-5.95,15.2-5.07,19.86,1.29-1.37-3.11-3.32-6.24-3.19-9.79.09-2.28,1.37-4.67,3.25-5.97,5.49,5.62,9.09,13.22,10.23,21.01,1.74,11.99-2.7,26.58-12.18,34.47-.17.14-.25.37-.53.3Z"/>
    </g>
  </g>
</svg>