<?xml version="1.0" encoding="UTF-8"?>
<svg id="Layer_2" data-name="Layer 2" xmlns="http://www.w3.org/2000/svg" viewBox="0 0 129.05 29.45">
  <defs>
    <style>
      .cls-1 {
        fill: #fff;
      }
    </style>
  </defs>
  <g id="Layer_1-2" data-name="Layer 1">
    <g>
      <polygon class="cls-1" points="40.67 .46 41.5 16.79 48.53 .51 54.11 .46 56.48 16.84 61.81 .46 69.37 .46 58.91 29.04 52.7 29.03 49.92 10.99 42.02 28.98 35.62 28.98 32.95 .46 40.67 .46"/>
      <path class="cls-1" d="M128.64,17.06h-18.93c.09,1.59.5,3.2,1.57,4.41,1.77,2.01,4.89,2.22,7.14.91,1.22-.71,2.09-1.84,2.85-2.99l6.32,2.86c.02.06,0,.11-.02.16-.23.63-1.32,2.03-1.8,2.56-3.75,4.17-10.37,5.48-15.59,3.61-10.22-3.64-10.14-19.1-2.59-25.38,5.04-4.19,13.83-4.56,18.38.55,3.16,3.55,3.56,8.8,2.68,13.3ZM121.52,11.6c.05-1.1-.18-2.22-.71-3.18-1.23-2.22-3.94-2.71-6.2-1.88s-3.76,2.82-4.18,5.06h11.09Z"/>
      <path class="cls-1" d="M101.25,2.18l-1.09,8.04c-1.68-1.97-3.88-3.72-6.55-4.02-1.43-.16-3.71.07-4.14,1.75-.38,1.53.91,2.26,2.06,2.86,4.12,2.13,8.39,3.1,8.68,8.7.5,9.73-11.25,11.83-18.28,8.4-.43-.21-1.63-.85-1.92-1.17-.06-.07-.12-.11-.11-.22l1.11-8.03c.73.85,1.39,1.73,2.26,2.46,1.99,1.66,5.33,2.86,7.87,1.9,1.42-.54,2.15-2.15,1.07-3.39-.93-1.08-3.89-2.07-5.26-2.74-3.83-1.86-5.69-4.58-4.93-8.99,1.26-7.28,9.8-8.82,15.88-7.08,1.19.34,2.31.87,3.35,1.53Z"/>
      <polygon class="cls-1" points="29.97 .46 19.59 29.03 13.74 29.03 22.29 5.31 11.2 5.31 13.67 9.63 9.88 14.08 16.06 14.08 14.46 18.55 0 18.55 8.05 9.08 3.15 .46 29.97 .46"/>
      <polygon class="cls-1" points="79.8 .46 75.74 29.03 67.88 29.03 71.85 .46 79.8 .46"/>
    </g>
  </g>
</svg>