<?xml version="1.0" encoding="UTF-8"?>
<svg id="Layer_2" data-name="Layer 2" xmlns="http://www.w3.org/2000/svg" viewBox="0 0 52.21 65.26">
  <defs>
    <style>
      .cls-1 {
        fill: #fff;
      }
    </style>
  </defs>
  <g id="Layer_1-2" data-name="Layer 1">
    <g>
      <path class="cls-1" d="M21.83.04c4.66-.31,7.64,1.12,7.53,6.16-.13,5.88-.53,11.8-.81,17.68-.08,1.59.02,3.22-.39,4.76-1.08,4.07-4.92,4.14-6.96.79-3.37-6.48-7.25-12.73-10.56-19.23-.86-1.69-1.45-3.3-.45-5.11C11.88,2.02,18.55.26,21.83.04Z"/>
      <path class="cls-1" d="M32.51,40.2c.79-.09,1.58.04,2.33.31,4.33,2.41,8.99,4.58,13.23,7.13,1.93,1.16,3.21,2.47,2.45,4.9-.84,2.69-5.37,7.18-8.02,8.12s-3.85-.24-5.07-2.32c-2.48-4.22-4.49-8.74-6.95-12.97-1.12-2.03-.59-4.88,2.05-5.18Z"/>
      <path class="cls-1" d="M23.57,42.24c2.61-.31,3.46,2.15,3.43,4.3-.04,3.48-.34,7.12-.5,10.61s.47,8.03-4.37,8.1c-2.88.04-9.67-2.17-10.85-5.05-.64-1.56.06-2.97.9-4.27,2.63-4.06,5.91-7.9,8.61-11.94.67-.78,1.73-1.63,2.78-1.75Z"/>
      <path class="cls-1" d="M3.82,28.4c1.07-.13,1.98.14,2.98.46,4.83,1.58,9.57,3.59,14.34,5.34,3.04,1.87,2.1,5.34-1.17,6.24-4.98,1.37-10.32,2.21-15.35,3.4-2.94.15-4.15-1.96-4.5-4.57-.37-2.79-.08-10.41,3.7-10.87Z"/>
      <path class="cls-1" d="M43.93,19.22c2.92-.37,5.34,3.44,6.55,5.65,1.76,3.22,3.29,7.2-1.33,8.69s-9.87,2.19-14.59,3.6c-4.17,1.09-6.03-3.03-3.34-6.07,1.85-2.1,4.16-4.19,6.15-6.2,1.36-1.37,2.75-2.99,4.16-4.29.63-.58,1.54-1.27,2.41-1.38Z"/>
    </g>
  </g>
</svg>